<?xml version="1.0" encoding="UTF-8" standalone="no"?>
<svg width="512px" height="512px" viewBox="0 0 512 512" version="1.1" xmlns="http://www.w3.org/2000/svg" xmlns:xlink="http://www.w3.org/1999/xlink" xmlns:sketch="http://www.bohemiancoding.com/sketch/ns">
    <title>Untitled 2</title>
    <description>Created with Sketch (http://www.bohemiancoding.com/sketch)</description>
    <defs></defs>
    <g id="Page-1" stroke="none" stroke-width="1" fill="none" fill-rule="evenodd" sketch:type="MSPage">
        <rect id="Rectangle-1" fill="#3BF5D8" sketch:type="MSShapeGroup" x="0" y="0" width="512" height="512"></rect>
        <g id="£-+-Rectangle-2" sketch:type="MSLayerGroup" transform="translate(204.000000, 164.000000)" fill="#FFFFFF">
            <path d="M33.3,172.7 C40.2,165.2 44.1,155 44.1,144.5 L44.1,95.3 L74.4,95.3 C77.7,95.3 80.1,92.9 80.1,89.6 C80.1,86.3 77.7,83.9 74.4,83.9 L44.1,83.9 L44.1,35.6 C44.1,24.8 51.6,14.9 62.1,12.2 C72.9,9.5 84,14 89.4,23.6 C91.2,26.3 94.5,27.2 97.2,25.7 C100.2,23.9 101.1,20.6 99.6,17.6 C91.5,3.8 74.7,-3.1 59.1,1.1 C43.5,5.3 32.7,19.4 32.7,35.6 L32.7,83.9 L21,83.9 L14.4,83.9 C11.4,83.9 8.7,86.3 8.7,89.6 C8.7,92.9 11.4,95.3 14.4,95.3 L32.7,95.3 L32.7,144.5 C32.7,157.4 24.6,168.8 12.6,173 C9.9,173.9 8.4,176.6 8.7,179.3 C9.3,182.3 11.7,184.1 14.4,184.1 L98.4,184.1 C101.7,184.1 104.1,181.7 104.1,178.4 C104.1,175.1 101.7,172.7 98.4,172.7 L33.3,172.7 Z" id="£" sketch:type="MSShapeGroup"></path>
            <rect id="Rectangle-2" sketch:type="MSShapeGroup" x="0" y="106" width="86" height="11" rx="8"></rect>
        </g>
        <rect id="Rectangle-3-copy" fill="#3DE7C7" sketch:type="MSShapeGroup" x="0" y="412" width="512" height="100"></rect>
        <rect id="Rectangle-3-copy-2" fill="#3DE7C7" sketch:type="MSShapeGroup" x="0" y="0" width="512" height="100"></rect>
    </g>
</svg>